<?xml version="1.0" encoding="utf-8"?>
<!-- Generator: Adobe Illustrator 27.0.0, SVG Export Plug-In . SVG Version: 6.00 Build 0)  -->
<svg version="1.1" id="_Слой_2" xmlns="http://www.w3.org/2000/svg" xmlns:xlink="http://www.w3.org/1999/xlink" x="0px"
	 y="0px" viewBox="0 0 35.5 59.6" style="enable-background:new 0 0 35.5 59.6;" xml:space="preserve">
<style type="text/css">
	.st0{fill:#3B2667;}
</style>
<g id="_Слой_0_Порог_1_Изображение">
	<path class="st0" d="M20.3,13.8c0,1.3,0,2.7,0,4c0,1.7-1.2,3-2.6,3.1c-1.6,0.1-3-1-3.2-2.9c-0.1-1.9-0.1-3.8-0.1-5.8
		c0-2.6,0-5.3,0-7.9c0-0.6,0-1.3,0.1-1.9c0.2-1.2,1-2,2.1-2.3c1.1-0.3,2.1,0,2.8,0.9c0.7,0.8,1.4,1.8,2,2.7
		c3.9,5.8,7.8,11.7,11.8,17.5c1.1,1.6,1.7,3.2,1.5,5.1c-0.3,3.3-2.3,5.7-5.6,6.3c-1.8,0.3-3.6,0.3-5.5,0.4c-1,0-2,0-2.9,0
		c-0.6,1.3-0.9,2.5-1.5,3.3c-0.3,0.5-1.3,0.6-2,0.6c-1.8,0.1-2.5-0.8-3.2-3.9c-2.3,0-4.7,0-7.1,0c-0.9,0-1.2,0.6-0.8,1.5
		c0.1,0.2,0.2,0.4,0.4,0.6c2.4,3.6,4.9,7.2,7.3,10.9c0.2,0,0.4-0.1,0.5-0.1c0-1.1-0.1-2.3,0-3.4c0.1-0.9,0.4-1.9,0.9-2.6
		c0.6-0.9,1.6-1.2,2.8-1c1.2,0.3,1.9,1.1,2.2,2.3c0,0.2,0,0.5,0,0.7c0,4.9,0,9.8,0,14.6c0,2.2-1.6,3.5-3.6,2.9
		c-0.8-0.2-1.5-0.9-2-1.6c-1.8-2.5-3.5-5.1-5.3-7.7C6.8,46.1,4,42.1,1.4,38c-2.2-3.4-1.6-7.2,1.4-9.6c1.3-1,2.8-1.5,4.4-1.5
		c2.3,0,4.6,0,6.6,0c0.8-1.4,1.2-2.7,2-3.7c0.3-0.4,1.1-0.6,1.8-0.6c1.7,0,2.6,1.3,3,4.3c2.2,0,4.5,0.1,6.8,0c1.6,0,2-0.8,1.1-2.2
		c-1.9-2.9-3.8-5.7-5.7-8.6c-0.6-0.9-1.2-1.7-1.8-2.5L20.3,13.8L20.3,13.8z"/>
	<path class="st0" d="M2.1,18c-2.1-2.6-2.4-4.2-1-5.5c1.3-1.2,2.9-0.9,5.4,1.1c1.1-0.7,1.9-2.2,3.6-1.7c0.6,0.2,1.4,0.5,1.8,1
		c1.3,1.4,1,2.7-0.8,4.8c0.5,1.4,1.2,2.6,1.4,4c0.1,0.5-0.5,1.4-0.9,1.8c-1.4,1.3-2.6,1-5.1-1c-1.2,0.7-2.2,2.2-3.9,1.8
		c-0.7-0.2-1.3-0.6-1.8-1.1C-0.3,21.9,0,20.5,2.1,18L2.1,18z"/>
	<path class="st0" d="M28.4,48.3c-1.2,0-2.4,0-3.6,0c-2.7-0.1-4.1-2-3-4.3c1.2-2.5,2.7-4.9,4.2-7.2c1.3-2,3.6-1.8,4.9,0.2
		c1.5,2.3,2.8,4.6,4.1,7c1.1,2.1-0.1,4.1-2.4,4.3C31.3,48.4,29.8,48.3,28.4,48.3L28.4,48.3L28.4,48.3z"/>
</g>
</svg>
