<?xml version="1.0" encoding="utf-8"?>
<!-- Generator: Adobe Illustrator 27.0.0, SVG Export Plug-In . SVG Version: 6.00 Build 0)  -->
<svg version="1.1" id="_Слой_2" xmlns="http://www.w3.org/2000/svg" xmlns:xlink="http://www.w3.org/1999/xlink" x="0px"
	 y="0px" viewBox="0 0 41.8 51.1" style="enable-background:new 0 0 41.8 51.1;" xml:space="preserve">
<style type="text/css">
	.st0{fill:#3B2667;}
</style>
<g id="_Слой_0_Порог_1_Изображение">
	<path class="st0" d="M0,31c-0.3-3.6,1.2-6.1,4.4-7.5c2.6-1.1,5.1-0.9,7.5,0.8c2.8,1.9,5.8,3,9.2,3c2.9-0.1,5.5-0.9,7.9-2.4
		c1.1-0.7,2.2-1.4,3.3-1.8c4.5-1.5,9.8,1.9,9.5,7.6c-0.3,7.6-3.7,13.6-10.3,17.5c-12.2,7.3-28,0.5-31.1-13.9C0.1,33.2,0.1,32.1,0,31
		z M20.8,45.1c6.9,0.2,13.9-5.2,14.9-13.5c0.1-1,0.3-2.2-0.8-2.8c-1-0.5-1.6,0.3-2.3,0.7c-0.1,0.1-0.3,0.2-0.4,0.2
		C25.5,34,18.6,34.2,11.6,31c-1.1-0.5-2.1-1.2-3.1-1.8C7,28.4,6,29,5.9,30.6c0,0.5,0.1,1,0.1,1.4C6.9,39.4,13.4,45.1,20.8,45.1z"/>
	<path class="st0" d="M20.9,23.9C13.7,23.9,9.1,19,9,11.7C8.8,4.7,14,0,20.8,0c7,0,11.9,4.9,11.9,11.9
		C32.8,18.9,27.8,23.9,20.9,23.9L20.9,23.9z M21,6.1c-3.6,0-5.9,2-6,5.3c-0.1,3.5,1.7,6.7,5.9,6.6c3.3,0,5.8-1.8,5.8-5.8
		C26.7,8.3,24.6,6.1,21,6.1L21,6.1z"/>
</g>
</svg>
